<svg width="1705" height="1438" viewBox="0 0 1705 1438" fill="none" xmlns="http://www.w3.org/2000/svg">
<g clip-path="url(#clip0_4233_687)">
<line x1="2.05355" y1="0.266602" x2="2.0535" y2="1082.66" stroke="url(#paint0_linear_4233_687)" stroke-width="4.1071"/>
<line x1="854.304" y1="0.266602" x2="854.304" y2="970.424" stroke="#F3F3F3" stroke-width="4.1071"/>
<line x1="854.304" y1="0.266602" x2="854.304" y2="970.424" stroke="url(#paint1_linear_4233_687)" stroke-width="4.1071"/>
<line x1="79.5926" y1="0.266602" x2="79.5926" y2="891.322" stroke="#F3F3F3" stroke-width="4.1071"/>
<line x1="79.5926" y1="0.266602" x2="79.5926" y2="891.322" stroke="url(#paint2_linear_4233_687)" stroke-width="4.1071"/>
<line x1="931.874" y1="0.266602" x2="931.874" y2="891.322" stroke="#F3F3F3" stroke-width="4.1071"/>
<line x1="931.874" y1="0.266602" x2="931.874" y2="891.322" stroke="url(#paint3_linear_4233_687)" stroke-width="4.1071"/>
<line x1="79.5926" y1="0.266602" x2="79.5926" y2="891.322" stroke="#F3F3F3" stroke-width="4.1071"/>
<line x1="79.5926" y1="0.266602" x2="79.5926" y2="891.322" stroke="url(#paint4_linear_4233_687)" stroke-width="4.1071"/>
<line x1="931.874" y1="0.266602" x2="931.874" y2="891.322" stroke="#F3F3F3" stroke-width="4.1071"/>
<line x1="931.874" y1="0.266602" x2="931.874" y2="891.322" stroke="url(#paint5_linear_4233_687)" stroke-width="4.1071"/>
<line x1="157.065" y1="0.266602" x2="157.065" y2="756.72" stroke="#F3F3F3" stroke-width="4.1071"/>
<line x1="157.065" y1="0.266602" x2="157.065" y2="756.72" stroke="url(#paint6_linear_4233_687)" stroke-width="4.1071"/>
<line x1="1009.32" y1="0.266602" x2="1009.32" y2="756.72" stroke="#F3F3F3" stroke-width="4.1071"/>
<line x1="1009.32" y1="0.266602" x2="1009.32" y2="756.72" stroke="url(#paint7_linear_4233_687)" stroke-width="4.1071"/>
<line x1="234.542" y1="0.266602" x2="234.542" y2="625.588" stroke="#F3F3F3" stroke-width="4.1071"/>
<line x1="234.542" y1="0.266602" x2="234.542" y2="625.588" stroke="url(#paint8_linear_4233_687)" stroke-width="4.1071"/>
<line x1="1086.8" y1="0.266602" x2="1086.8" y2="625.588" stroke="#F3F3F3" stroke-width="4.1071"/>
<line x1="1086.8" y1="0.266602" x2="1086.8" y2="625.588" stroke="url(#paint9_linear_4233_687)" stroke-width="4.1071"/>
<line x1="312.014" y1="0.266602" x2="312.014" y2="485.345" stroke="#F3F3F3" stroke-width="4.1071"/>
<line x1="312.014" y1="0.266602" x2="312.014" y2="485.345" stroke="url(#paint10_linear_4233_687)" stroke-width="4.1071"/>
<line x1="1164.28" y1="0.266602" x2="1164.28" y2="485.345" stroke="#F3F3F3" stroke-width="4.1071"/>
<line x1="1164.28" y1="0.266602" x2="1164.28" y2="485.345" stroke="url(#paint11_linear_4233_687)" stroke-width="4.1071"/>
<line x1="389.487" y1="0.266602" x2="389.487" y2="351.864" stroke="#F3F3F3" stroke-width="4.1071"/>
<line x1="389.487" y1="0.266602" x2="389.487" y2="351.864" stroke="url(#paint12_linear_4233_687)" stroke-width="4.1071"/>
<line x1="1241.74" y1="0.266602" x2="1241.74" y2="351.864" stroke="#F3F3F3" stroke-width="4.1071"/>
<line x1="1241.74" y1="0.266602" x2="1241.74" y2="351.864" stroke="url(#paint13_linear_4233_687)" stroke-width="4.1071"/>
<line x1="467.03" y1="0.266602" x2="467.03" y2="231.719" stroke="#F3F3F3" stroke-width="4.1071"/>
<line x1="467.03" y1="0.266602" x2="467.03" y2="231.719" stroke="url(#paint14_linear_4233_687)" stroke-width="4.1071"/>
<line x1="1319.22" y1="0.266602" x2="1319.22" y2="231.719" stroke="#F3F3F3" stroke-width="4.1071"/>
<line x1="1319.22" y1="0.266602" x2="1319.22" y2="231.719" stroke="url(#paint15_linear_4233_687)" stroke-width="4.1071"/>
<line x1="544.487" y1="0.266601" x2="544.487" y2="625.587" stroke="#F3F3F3" stroke-width="4.1071"/>
<line x1="544.487" y1="0.266601" x2="544.487" y2="625.587" stroke="url(#paint16_linear_4233_687)" stroke-width="4.1071"/>
<line x1="1396.73" y1="0.266601" x2="1396.73" y2="625.587" stroke="#F3F3F3" stroke-width="4.1071"/>
<line x1="1396.73" y1="0.266601" x2="1396.73" y2="625.587" stroke="url(#paint17_linear_4233_687)" stroke-width="4.1071"/>
<line x1="621.897" y1="0.266602" x2="621.897" y2="231.719" stroke="#F3F3F3" stroke-width="4.1071"/>
<line x1="621.897" y1="0.266602" x2="621.897" y2="231.719" stroke="url(#paint18_linear_4233_687)" stroke-width="4.1071"/>
<line x1="1474.16" y1="0.266602" x2="1474.16" y2="231.719" stroke="#F3F3F3" stroke-width="4.1071"/>
<line x1="1474.16" y1="0.266602" x2="1474.16" y2="231.719" stroke="url(#paint19_linear_4233_687)" stroke-width="4.1071"/>
<line x1="699.374" y1="0.266602" x2="699.374" y2="351.864" stroke="#F3F3F3" stroke-width="4.1071"/>
<line x1="699.374" y1="0.266602" x2="699.374" y2="351.864" stroke="url(#paint20_linear_4233_687)" stroke-width="4.1071"/>
<line x1="1551.62" y1="0.266602" x2="1551.62" y2="351.864" stroke="#F3F3F3" stroke-width="4.1071"/>
<line x1="1551.62" y1="0.266602" x2="1551.62" y2="351.864" stroke="url(#paint21_linear_4233_687)" stroke-width="4.1071"/>
<line x1="776.843" y1="0.266602" x2="776.843" y2="469.531" stroke="#F3F3F3" stroke-width="4.1071"/>
<line x1="776.843" y1="0.266602" x2="776.843" y2="469.531" stroke="url(#paint22_linear_4233_687)" stroke-width="4.1071"/>
<line x1="1629.06" y1="0.266602" x2="1629.06" y2="469.531" stroke="#F3F3F3" stroke-width="4.1071"/>
<line x1="1629.06" y1="0.266602" x2="1629.06" y2="469.531" stroke="url(#paint23_linear_4233_687)" stroke-width="4.1071"/>
<line x1="854.304" y1="0.266602" x2="854.304" y2="596.261" stroke="#F3F3F3" stroke-width="4.1071"/>
<line x1="854.304" y1="0.266602" x2="854.304" y2="596.261" stroke="url(#paint24_linear_4233_687)" stroke-width="4.1071"/>
<line x1="79.5926" y1="907.781" x2="79.5926" y2="1155.92" stroke="#F3F3F3" stroke-width="4.1071"/>
<line x1="79.5926" y1="907.781" x2="79.5926" y2="1155.92" stroke="url(#paint25_linear_4233_687)" stroke-width="4.1071"/>
<line x1="931.874" y1="907.781" x2="931.874" y2="1155.92" stroke="#F3F3F3" stroke-width="4.1071"/>
<line x1="931.874" y1="907.781" x2="931.874" y2="1155.92" stroke="url(#paint26_linear_4233_687)" stroke-width="4.1071"/>
<line x1="157.065" y1="777.474" x2="157.065" y2="1283.05" stroke="#F3F3F3" stroke-width="4.1071"/>
<line x1="157.065" y1="777.474" x2="157.065" y2="1283.05" stroke="url(#paint27_linear_4233_687)" stroke-width="4.1071"/>
<line x1="1009.32" y1="777.474" x2="1009.32" y2="1283.05" stroke="#F3F3F3" stroke-width="4.1071"/>
<line x1="1009.32" y1="777.474" x2="1009.32" y2="1283.05" stroke="url(#paint28_linear_4233_687)" stroke-width="4.1071"/>
<line x1="467.03" y1="258.58" x2="467.03" y2="753.034" stroke="#F3F3F3" stroke-width="4.1071"/>
<line x1="467.03" y1="258.58" x2="467.03" y2="753.034" stroke="url(#paint29_linear_4233_687)" stroke-width="4.1071"/>
<line x1="1319.22" y1="258.58" x2="1319.22" y2="753.034" stroke="#F3F3F3" stroke-width="4.1071"/>
<line x1="1319.22" y1="258.58" x2="1319.22" y2="753.034" stroke="url(#paint30_linear_4233_687)" stroke-width="4.1071"/>
<line x1="776.843" y1="520.61" x2="776.843" y2="753.032" stroke="#F3F3F3" stroke-width="4.1071"/>
<line x1="776.843" y1="520.61" x2="776.843" y2="753.032" stroke="url(#paint31_linear_4233_687)" stroke-width="4.1071"/>
<line x1="1629.06" y1="520.61" x2="1629.06" y2="753.032" stroke="#F3F3F3" stroke-width="4.1071"/>
<line x1="1629.06" y1="520.61" x2="1629.06" y2="753.032" stroke="url(#paint32_linear_4233_687)" stroke-width="4.1071"/>
<line x1="699.374" y1="389.609" x2="699.374" y2="877.482" stroke="#F3F3F3" stroke-width="4.1071"/>
<line x1="699.374" y1="389.609" x2="699.374" y2="877.482" stroke="url(#paint33_linear_4233_687)" stroke-width="4.1071"/>
<line x1="1551.62" y1="389.609" x2="1551.62" y2="877.482" stroke="#F3F3F3" stroke-width="4.1071"/>
<line x1="1551.62" y1="389.609" x2="1551.62" y2="877.482" stroke="url(#paint34_linear_4233_687)" stroke-width="4.1071"/>
<line x1="621.897" y1="258.58" x2="621.897" y2="763.506" stroke="#F3F3F3" stroke-width="4.1071"/>
<line x1="621.897" y1="258.58" x2="621.897" y2="763.506" stroke="url(#paint35_linear_4233_687)" stroke-width="4.1071"/>
<line x1="1474.16" y1="258.58" x2="1474.16" y2="763.506" stroke="#F3F3F3" stroke-width="4.1071"/>
<line x1="1474.16" y1="258.58" x2="1474.16" y2="763.506" stroke="url(#paint36_linear_4233_687)" stroke-width="4.1071"/>
<line x1="389.487" y1="389.609" x2="389.487" y2="877.482" stroke="#F3F3F3" stroke-width="4.1071"/>
<line x1="389.487" y1="389.609" x2="389.487" y2="877.482" stroke="url(#paint37_linear_4233_687)" stroke-width="4.1071"/>
<line x1="1241.74" y1="389.609" x2="1241.74" y2="877.482" stroke="#F3F3F3" stroke-width="4.1071"/>
<line x1="1241.74" y1="389.609" x2="1241.74" y2="877.482" stroke="url(#paint38_linear_4233_687)" stroke-width="4.1071"/>
<line x1="312.014" y1="520.61" x2="312.014" y2="1009.12" stroke="#F3F3F3" stroke-width="4.1071"/>
<line x1="312.014" y1="520.61" x2="312.014" y2="1009.12" stroke="url(#paint39_linear_4233_687)" stroke-width="4.1071"/>
<line x1="1164.28" y1="520.61" x2="1164.28" y2="1009.12" stroke="#F3F3F3" stroke-width="4.1071"/>
<line x1="1164.28" y1="520.61" x2="1164.28" y2="1009.12" stroke="url(#paint40_linear_4233_687)" stroke-width="4.1071"/>
<line x1="234.542" y1="648.864" x2="234.542" y2="1139.13" stroke="#F3F3F3" stroke-width="4.1071"/>
<line x1="234.542" y1="648.864" x2="234.542" y2="1139.13" stroke="url(#paint41_linear_4233_687)" stroke-width="4.1071"/>
<line x1="1086.8" y1="648.864" x2="1086.8" y2="1139.13" stroke="#F3F3F3" stroke-width="4.1071"/>
<line x1="1086.8" y1="648.864" x2="1086.8" y2="1139.13" stroke="url(#paint42_linear_4233_687)" stroke-width="4.1071"/>
<line x1="776.843" y1="777.475" x2="776.843" y2="1437.57" stroke="#F3F3F3" stroke-width="4.1071"/>
<line x1="776.843" y1="777.475" x2="776.843" y2="1437.57" stroke="url(#paint43_linear_4233_687)" stroke-width="4.1071"/>
<line x1="1629.06" y1="777.475" x2="1629.06" y2="1437.57" stroke="#F3F3F3" stroke-width="4.1071"/>
<line x1="1629.06" y1="777.475" x2="1629.06" y2="1437.57" stroke="url(#paint44_linear_4233_687)" stroke-width="4.1071"/>
<line x1="699.374" y1="906.912" x2="699.374" y2="1437.58" stroke="#F3F3F3" stroke-width="4.1071"/>
<line x1="699.374" y1="906.912" x2="699.374" y2="1437.58" stroke="url(#paint45_linear_4233_687)" stroke-width="4.1071"/>
<line x1="1551.62" y1="906.912" x2="1551.62" y2="1437.58" stroke="#F3F3F3" stroke-width="4.1071"/>
<line x1="1551.62" y1="906.912" x2="1551.62" y2="1437.58" stroke="url(#paint46_linear_4233_687)" stroke-width="4.1071"/>
<line x1="621.897" y1="777.475" x2="621.897" y2="1437.57" stroke="#F3F3F3" stroke-width="4.1071"/>
<line x1="621.897" y1="777.475" x2="621.897" y2="1437.57" stroke="url(#paint47_linear_4233_687)" stroke-width="4.1071"/>
<line x1="1474.16" y1="777.475" x2="1474.16" y2="1437.57" stroke="#F3F3F3" stroke-width="4.1071"/>
<line x1="1474.16" y1="777.475" x2="1474.16" y2="1437.57" stroke="url(#paint48_linear_4233_687)" stroke-width="4.1071"/>
<line x1="544.487" y1="648.865" x2="544.487" y2="1437.58" stroke="#F3F3F3" stroke-width="4.1071"/>
<line x1="544.487" y1="648.865" x2="544.487" y2="1437.58" stroke="url(#paint49_linear_4233_687)" stroke-width="4.1071"/>
<line x1="1396.73" y1="648.865" x2="1396.73" y2="1437.58" stroke="#F3F3F3" stroke-width="4.1071"/>
<line x1="1396.73" y1="648.865" x2="1396.73" y2="1437.58" stroke="url(#paint50_linear_4233_687)" stroke-width="4.1071"/>
<line x1="467.03" y1="777.475" x2="467.03" y2="1437.57" stroke="#F3F3F3" stroke-width="4.1071"/>
<line x1="467.03" y1="777.475" x2="467.03" y2="1437.57" stroke="url(#paint51_linear_4233_687)" stroke-width="4.1071"/>
<line x1="1319.22" y1="777.475" x2="1319.22" y2="1437.57" stroke="#F3F3F3" stroke-width="4.1071"/>
<line x1="1319.22" y1="777.475" x2="1319.22" y2="1437.57" stroke="url(#paint52_linear_4233_687)" stroke-width="4.1071"/>
<line x1="389.487" y1="906.912" x2="389.487" y2="1437.58" stroke="#F3F3F3" stroke-width="4.1071"/>
<line x1="389.487" y1="906.912" x2="389.487" y2="1437.58" stroke="url(#paint53_linear_4233_687)" stroke-width="4.1071"/>
<line x1="1241.74" y1="906.912" x2="1241.74" y2="1437.58" stroke="#F3F3F3" stroke-width="4.1071"/>
<line x1="1241.74" y1="906.912" x2="1241.74" y2="1437.58" stroke="url(#paint54_linear_4233_687)" stroke-width="4.1071"/>
<line x1="312.014" y1="1033.74" x2="312.014" y2="1437.57" stroke="#F3F3F3" stroke-width="4.1071"/>
<line x1="312.014" y1="1033.74" x2="312.014" y2="1437.57" stroke="url(#paint55_linear_4233_687)" stroke-width="4.1071"/>
<line x1="1164.28" y1="1033.74" x2="1164.28" y2="1437.57" stroke="#F3F3F3" stroke-width="4.1071"/>
<line x1="1164.28" y1="1033.74" x2="1164.28" y2="1437.57" stroke="url(#paint56_linear_4233_687)" stroke-width="4.1071"/>
<line x1="234.542" y1="1172.25" x2="234.542" y2="1437.58" stroke="#F3F3F3" stroke-width="4.1071"/>
<line x1="234.542" y1="1172.25" x2="234.542" y2="1437.58" stroke="url(#paint57_linear_4233_687)" stroke-width="4.1071"/>
<line x1="1086.8" y1="1172.25" x2="1086.8" y2="1437.58" stroke="#F3F3F3" stroke-width="4.1071"/>
<line x1="1086.8" y1="1172.25" x2="1086.8" y2="1437.58" stroke="url(#paint58_linear_4233_687)" stroke-width="4.1071"/>
<line x1="157.065" y1="1295.29" x2="157.065" y2="1437.57" stroke="#F3F3F3" stroke-width="4.1071"/>
<line x1="157.065" y1="1295.29" x2="157.065" y2="1437.57" stroke="url(#paint59_linear_4233_687)" stroke-width="4.1071"/>
<line x1="1009.32" y1="1295.29" x2="1009.32" y2="1437.57" stroke="#F3F3F3" stroke-width="4.1071"/>
<line x1="1009.32" y1="1295.29" x2="1009.32" y2="1437.57" stroke="url(#paint60_linear_4233_687)" stroke-width="4.1071"/>
<line x1="79.5926" y1="1164.99" x2="79.5926" y2="1437.58" stroke="#F3F3F3" stroke-width="4.1071"/>
<line x1="79.5926" y1="1164.99" x2="79.5926" y2="1437.58" stroke="url(#paint61_linear_4233_687)" stroke-width="4.1071"/>
<line x1="931.874" y1="1164.99" x2="931.874" y2="1437.58" stroke="#F3F3F3" stroke-width="4.1071"/>
<line x1="931.874" y1="1164.99" x2="931.874" y2="1437.58" stroke="url(#paint62_linear_4233_687)" stroke-width="4.1071"/>
<line x1="2.05355" y1="1033.74" x2="2.05356" y2="1437.57" stroke="#F3F3F3" stroke-width="4.1071"/>
<line x1="2.05355" y1="1033.74" x2="2.05356" y2="1437.57" stroke="url(#paint63_linear_4233_687)" stroke-width="4.1071"/>
<line x1="854.304" y1="1033.74" x2="854.304" y2="1437.57" stroke="#F3F3F3" stroke-width="4.1071"/>
<line x1="854.304" y1="1033.74" x2="854.304" y2="1437.57" stroke="url(#paint64_linear_4233_687)" stroke-width="4.1071"/>
</g>
<defs>
<linearGradient id="paint0_linear_4233_687" x1="-0.5" y1="0.266602" x2="-0.499959" y2="1232.26" gradientUnits="userSpaceOnUse">
<stop stop-color="#FFC655"/>
<stop offset="1"/>
</linearGradient>
<linearGradient id="paint1_linear_4233_687" x1="851.75" y1="0.266602" x2="851.75" y2="1104.51" gradientUnits="userSpaceOnUse">
<stop stop-color="#FFC655"/>
<stop offset="1"/>
</linearGradient>
<linearGradient id="paint2_linear_4233_687" x1="77.0391" y1="0.266602" x2="77.0391" y2="1014.48" gradientUnits="userSpaceOnUse">
<stop stop-color="#FFC655"/>
<stop offset="1"/>
</linearGradient>
<linearGradient id="paint3_linear_4233_687" x1="929.32" y1="0.266602" x2="929.32" y2="1014.48" gradientUnits="userSpaceOnUse">
<stop stop-color="#FFC655"/>
<stop offset="1"/>
</linearGradient>
<linearGradient id="paint4_linear_4233_687" x1="77.0391" y1="0.266602" x2="77.0391" y2="1014.48" gradientUnits="userSpaceOnUse">
<stop stop-color="#FFC655"/>
<stop offset="1"/>
</linearGradient>
<linearGradient id="paint5_linear_4233_687" x1="929.32" y1="0.266602" x2="929.32" y2="1014.48" gradientUnits="userSpaceOnUse">
<stop stop-color="#FFC655"/>
<stop offset="1"/>
</linearGradient>
<linearGradient id="paint6_linear_4233_687" x1="154.512" y1="0.266602" x2="154.512" y2="861.272" gradientUnits="userSpaceOnUse">
<stop stop-color="#FFC655"/>
<stop offset="1"/>
</linearGradient>
<linearGradient id="paint7_linear_4233_687" x1="1006.77" y1="0.266602" x2="1006.77" y2="861.272" gradientUnits="userSpaceOnUse">
<stop stop-color="#FFC655"/>
<stop offset="1"/>
</linearGradient>
<linearGradient id="paint8_linear_4233_687" x1="231.988" y1="0.266602" x2="231.988" y2="712.016" gradientUnits="userSpaceOnUse">
<stop stop-color="#FFC655"/>
<stop offset="1"/>
</linearGradient>
<linearGradient id="paint9_linear_4233_687" x1="1084.25" y1="0.266602" x2="1084.25" y2="712.016" gradientUnits="userSpaceOnUse">
<stop stop-color="#FFC655"/>
<stop offset="1"/>
</linearGradient>
<linearGradient id="paint10_linear_4233_687" x1="309.461" y1="0.266602" x2="309.461" y2="552.39" gradientUnits="userSpaceOnUse">
<stop stop-color="#FFC655"/>
<stop offset="1"/>
</linearGradient>
<linearGradient id="paint11_linear_4233_687" x1="1161.73" y1="0.266602" x2="1161.73" y2="552.39" gradientUnits="userSpaceOnUse">
<stop stop-color="#FFC655"/>
<stop offset="1"/>
</linearGradient>
<linearGradient id="paint12_linear_4233_687" x1="386.934" y1="0.266602" x2="386.934" y2="400.459" gradientUnits="userSpaceOnUse">
<stop stop-color="#FFC655"/>
<stop offset="1"/>
</linearGradient>
<linearGradient id="paint13_linear_4233_687" x1="1239.19" y1="0.266602" x2="1239.19" y2="400.459" gradientUnits="userSpaceOnUse">
<stop stop-color="#FFC655"/>
<stop offset="1"/>
</linearGradient>
<linearGradient id="paint14_linear_4233_687" x1="464.477" y1="0.266602" x2="464.477" y2="263.709" gradientUnits="userSpaceOnUse">
<stop stop-color="#FFC655"/>
<stop offset="1"/>
</linearGradient>
<linearGradient id="paint15_linear_4233_687" x1="1316.66" y1="0.266602" x2="1316.66" y2="263.709" gradientUnits="userSpaceOnUse">
<stop stop-color="#FFC655"/>
<stop offset="1"/>
</linearGradient>
<linearGradient id="paint16_linear_4233_687" x1="541.934" y1="0.266602" x2="541.934" y2="712.015" gradientUnits="userSpaceOnUse">
<stop stop-color="#FFC655"/>
<stop offset="1"/>
</linearGradient>
<linearGradient id="paint17_linear_4233_687" x1="1394.18" y1="0.266602" x2="1394.18" y2="712.015" gradientUnits="userSpaceOnUse">
<stop stop-color="#FFC655"/>
<stop offset="1"/>
</linearGradient>
<linearGradient id="paint18_linear_4233_687" x1="619.344" y1="0.266602" x2="619.344" y2="263.709" gradientUnits="userSpaceOnUse">
<stop stop-color="#FFC655"/>
<stop offset="1"/>
</linearGradient>
<linearGradient id="paint19_linear_4233_687" x1="1471.61" y1="0.266602" x2="1471.61" y2="263.709" gradientUnits="userSpaceOnUse">
<stop stop-color="#FFC655"/>
<stop offset="1"/>
</linearGradient>
<linearGradient id="paint20_linear_4233_687" x1="696.82" y1="0.266602" x2="696.82" y2="400.459" gradientUnits="userSpaceOnUse">
<stop stop-color="#FFC655"/>
<stop offset="1"/>
</linearGradient>
<linearGradient id="paint21_linear_4233_687" x1="1549.06" y1="0.266602" x2="1549.06" y2="400.459" gradientUnits="userSpaceOnUse">
<stop stop-color="#FFC655"/>
<stop offset="1"/>
</linearGradient>
<linearGradient id="paint22_linear_4233_687" x1="774.289" y1="0.266602" x2="774.289" y2="534.39" gradientUnits="userSpaceOnUse">
<stop stop-color="#FFC655"/>
<stop offset="1"/>
</linearGradient>
<linearGradient id="paint23_linear_4233_687" x1="1626.51" y1="0.266602" x2="1626.51" y2="534.39" gradientUnits="userSpaceOnUse">
<stop stop-color="#FFC655"/>
<stop offset="1"/>
</linearGradient>
<linearGradient id="paint24_linear_4233_687" x1="851.75" y1="0.266602" x2="851.75" y2="678.636" gradientUnits="userSpaceOnUse">
<stop stop-color="#FFC655"/>
<stop offset="1"/>
</linearGradient>
<linearGradient id="paint25_linear_4233_687" x1="77.0391" y1="907.781" x2="77.0391" y2="1190.22" gradientUnits="userSpaceOnUse">
<stop stop-color="#FFC655"/>
<stop offset="1"/>
</linearGradient>
<linearGradient id="paint26_linear_4233_687" x1="929.32" y1="907.781" x2="929.32" y2="1190.22" gradientUnits="userSpaceOnUse">
<stop stop-color="#FFC655"/>
<stop offset="1"/>
</linearGradient>
<linearGradient id="paint27_linear_4233_687" x1="154.512" y1="777.474" x2="154.512" y2="1352.93" gradientUnits="userSpaceOnUse">
<stop stop-color="#FFC655"/>
<stop offset="1"/>
</linearGradient>
<linearGradient id="paint28_linear_4233_687" x1="1006.77" y1="777.474" x2="1006.77" y2="1352.93" gradientUnits="userSpaceOnUse">
<stop stop-color="#FFC655"/>
<stop offset="1"/>
</linearGradient>
<linearGradient id="paint29_linear_4233_687" x1="464.477" y1="258.58" x2="464.477" y2="821.375" gradientUnits="userSpaceOnUse">
<stop stop-color="#FFC655"/>
<stop offset="1"/>
</linearGradient>
<linearGradient id="paint30_linear_4233_687" x1="1316.66" y1="258.58" x2="1316.66" y2="821.375" gradientUnits="userSpaceOnUse">
<stop stop-color="#FFC655"/>
<stop offset="1"/>
</linearGradient>
<linearGradient id="paint31_linear_4233_687" x1="774.289" y1="520.61" x2="774.289" y2="785.156" gradientUnits="userSpaceOnUse">
<stop stop-color="#FFC655"/>
<stop offset="1"/>
</linearGradient>
<linearGradient id="paint32_linear_4233_687" x1="1626.51" y1="520.61" x2="1626.51" y2="785.156" gradientUnits="userSpaceOnUse">
<stop stop-color="#FFC655"/>
<stop offset="1"/>
</linearGradient>
<linearGradient id="paint33_linear_4233_687" x1="696.82" y1="389.609" x2="696.82" y2="944.913" gradientUnits="userSpaceOnUse">
<stop stop-color="#FFC655"/>
<stop offset="1"/>
</linearGradient>
<linearGradient id="paint34_linear_4233_687" x1="1549.06" y1="389.609" x2="1549.06" y2="944.913" gradientUnits="userSpaceOnUse">
<stop stop-color="#FFC655"/>
<stop offset="1"/>
</linearGradient>
<linearGradient id="paint35_linear_4233_687" x1="619.344" y1="258.58" x2="619.344" y2="833.294" gradientUnits="userSpaceOnUse">
<stop stop-color="#FFC655"/>
<stop offset="1"/>
</linearGradient>
<linearGradient id="paint36_linear_4233_687" x1="1471.61" y1="258.58" x2="1471.61" y2="833.294" gradientUnits="userSpaceOnUse">
<stop stop-color="#FFC655"/>
<stop offset="1"/>
</linearGradient>
<linearGradient id="paint37_linear_4233_687" x1="386.934" y1="389.609" x2="386.934" y2="944.913" gradientUnits="userSpaceOnUse">
<stop stop-color="#FFC655"/>
<stop offset="1"/>
</linearGradient>
<linearGradient id="paint38_linear_4233_687" x1="1239.19" y1="389.609" x2="1239.19" y2="944.913" gradientUnits="userSpaceOnUse">
<stop stop-color="#FFC655"/>
<stop offset="1"/>
</linearGradient>
<linearGradient id="paint39_linear_4233_687" x1="309.461" y1="520.61" x2="309.461" y2="1076.64" gradientUnits="userSpaceOnUse">
<stop stop-color="#FFC655"/>
<stop offset="1"/>
</linearGradient>
<linearGradient id="paint40_linear_4233_687" x1="1161.73" y1="520.61" x2="1161.73" y2="1076.64" gradientUnits="userSpaceOnUse">
<stop stop-color="#FFC655"/>
<stop offset="1"/>
</linearGradient>
<linearGradient id="paint41_linear_4233_687" x1="231.988" y1="648.864" x2="231.988" y2="1206.9" gradientUnits="userSpaceOnUse">
<stop stop-color="#FFC655"/>
<stop offset="1"/>
</linearGradient>
<linearGradient id="paint42_linear_4233_687" x1="1084.25" y1="648.864" x2="1084.25" y2="1206.9" gradientUnits="userSpaceOnUse">
<stop stop-color="#FFC655"/>
<stop offset="1"/>
</linearGradient>
<linearGradient id="paint43_linear_4233_687" x1="774.289" y1="777.475" x2="774.289" y2="1528.81" gradientUnits="userSpaceOnUse">
<stop stop-color="#FFC655"/>
<stop offset="1"/>
</linearGradient>
<linearGradient id="paint44_linear_4233_687" x1="1626.51" y1="777.475" x2="1626.51" y2="1528.81" gradientUnits="userSpaceOnUse">
<stop stop-color="#FFC655"/>
<stop offset="1"/>
</linearGradient>
<linearGradient id="paint45_linear_4233_687" x1="696.82" y1="906.912" x2="696.82" y2="1510.92" gradientUnits="userSpaceOnUse">
<stop stop-color="#FFC655"/>
<stop offset="1"/>
</linearGradient>
<linearGradient id="paint46_linear_4233_687" x1="1549.06" y1="906.912" x2="1549.06" y2="1510.92" gradientUnits="userSpaceOnUse">
<stop stop-color="#FFC655"/>
<stop offset="1"/>
</linearGradient>
<linearGradient id="paint47_linear_4233_687" x1="619.344" y1="777.475" x2="619.344" y2="1528.81" gradientUnits="userSpaceOnUse">
<stop stop-color="#FFC655"/>
<stop offset="1"/>
</linearGradient>
<linearGradient id="paint48_linear_4233_687" x1="1471.61" y1="777.475" x2="1471.61" y2="1528.81" gradientUnits="userSpaceOnUse">
<stop stop-color="#FFC655"/>
<stop offset="1"/>
</linearGradient>
<linearGradient id="paint49_linear_4233_687" x1="541.934" y1="648.865" x2="541.934" y2="1546.59" gradientUnits="userSpaceOnUse">
<stop stop-color="#FFC655"/>
<stop offset="1"/>
</linearGradient>
<linearGradient id="paint50_linear_4233_687" x1="1394.18" y1="648.865" x2="1394.18" y2="1546.59" gradientUnits="userSpaceOnUse">
<stop stop-color="#FFC655"/>
<stop offset="1"/>
</linearGradient>
<linearGradient id="paint51_linear_4233_687" x1="464.477" y1="777.475" x2="464.477" y2="1528.81" gradientUnits="userSpaceOnUse">
<stop stop-color="#FFC655"/>
<stop offset="1"/>
</linearGradient>
<linearGradient id="paint52_linear_4233_687" x1="1316.66" y1="777.475" x2="1316.66" y2="1528.81" gradientUnits="userSpaceOnUse">
<stop stop-color="#FFC655"/>
<stop offset="1"/>
</linearGradient>
<linearGradient id="paint53_linear_4233_687" x1="386.934" y1="906.912" x2="386.934" y2="1510.92" gradientUnits="userSpaceOnUse">
<stop stop-color="#FFC655"/>
<stop offset="1"/>
</linearGradient>
<linearGradient id="paint54_linear_4233_687" x1="1239.19" y1="906.912" x2="1239.19" y2="1510.92" gradientUnits="userSpaceOnUse">
<stop stop-color="#FFC655"/>
<stop offset="1"/>
</linearGradient>
<linearGradient id="paint55_linear_4233_687" x1="309.461" y1="1033.74" x2="309.461" y2="1493.39" gradientUnits="userSpaceOnUse">
<stop stop-color="#FFC655"/>
<stop offset="1"/>
</linearGradient>
<linearGradient id="paint56_linear_4233_687" x1="1161.73" y1="1033.74" x2="1161.73" y2="1493.39" gradientUnits="userSpaceOnUse">
<stop stop-color="#FFC655"/>
<stop offset="1"/>
</linearGradient>
<linearGradient id="paint57_linear_4233_687" x1="231.988" y1="1172.25" x2="231.988" y2="1474.25" gradientUnits="userSpaceOnUse">
<stop stop-color="#FFC655"/>
<stop offset="1"/>
</linearGradient>
<linearGradient id="paint58_linear_4233_687" x1="1084.25" y1="1172.25" x2="1084.25" y2="1474.25" gradientUnits="userSpaceOnUse">
<stop stop-color="#FFC655"/>
<stop offset="1"/>
</linearGradient>
<linearGradient id="paint59_linear_4233_687" x1="154.512" y1="1295.29" x2="154.512" y2="1457.24" gradientUnits="userSpaceOnUse">
<stop stop-color="#FFC655"/>
<stop offset="1"/>
</linearGradient>
<linearGradient id="paint60_linear_4233_687" x1="1006.77" y1="1295.29" x2="1006.77" y2="1457.24" gradientUnits="userSpaceOnUse">
<stop stop-color="#FFC655"/>
<stop offset="1"/>
</linearGradient>
<linearGradient id="paint61_linear_4233_687" x1="77.0391" y1="1164.99" x2="77.0391" y2="1475.25" gradientUnits="userSpaceOnUse">
<stop stop-color="#FFC655"/>
<stop offset="1"/>
</linearGradient>
<linearGradient id="paint62_linear_4233_687" x1="929.32" y1="1164.99" x2="929.32" y2="1475.25" gradientUnits="userSpaceOnUse">
<stop stop-color="#FFC655"/>
<stop offset="1"/>
</linearGradient>
<linearGradient id="paint63_linear_4233_687" x1="-0.5" y1="1033.74" x2="-0.499953" y2="1493.39" gradientUnits="userSpaceOnUse">
<stop stop-color="#FFC655"/>
<stop offset="1"/>
</linearGradient>
<linearGradient id="paint64_linear_4233_687" x1="851.75" y1="1033.74" x2="851.75" y2="1493.39" gradientUnits="userSpaceOnUse">
<stop stop-color="#FFC655"/>
<stop offset="1"/>
</linearGradient>
<clipPath id="clip0_4233_687">
<rect width="1704.42" height="1437.31" fill="white"/>
</clipPath>
</defs>
</svg>
