<svg width="673" height="256" viewBox="0 0 673 256" fill="none" xmlns="http://www.w3.org/2000/svg">
<path d="M143.991 84.9795V140.437L142.903 141.543V167.105L139.585 170.441L136.249 167.105V141.525L135.18 140.437V84.9795H143.991Z" fill="#FFC655"/>
<path d="M99.9299 84.9795V128.381L95.1075 123.577V101.586L93.1133 99.5918V84.9795H99.9299Z" fill="#63553C"/>
<path d="M121.344 84.9795V152.203L116.522 147.381V121.8L114.527 119.806V84.9795H121.344Z" fill="#AE8E51"/>
<path d="M164.637 84.9795V119.806L162.643 121.8V147.381L157.82 152.203V84.9795H164.637Z" fill="#AE8E51"/>
<path d="M186.043 84.9795V99.6099L184.031 101.604V123.559L179.227 128.381V84.9795H186.043Z" fill="#63553C"/>
<path d="M565.663 100.135H563.125V99.1201H569.307V100.135H566.769V107.75H565.663V100.135Z" fill="#E5E5E5"/>
<path d="M571.576 99.4107V107.732H570.488V99.1025H572.555L574.803 107.424L577.051 99.1025H579.118V107.732H578.03V99.4107L575.854 107.732H573.752L571.576 99.4107Z" fill="#E5E5E5"/>
<path d="M248.85 124.32C254.833 122.616 257.643 118.03 257.643 113.08C257.643 106.862 254.09 99.1025 240.565 99.1025H223.777V151.605H242.124C255.141 151.605 259.13 143.918 259.13 137.192C259.13 130.013 255.141 125.426 248.85 124.32ZM230.666 104.795H240.511C248.723 104.795 250.645 109.237 250.645 113.588C250.645 117.359 249.249 122.018 240.511 122.018H230.666V104.795ZM241.689 145.913H230.666V127.656H242.432C249.303 127.656 252.114 131.5 252.114 136.522C252.114 141.543 249.594 145.913 241.689 145.913Z" fill="#E5E5E5"/>
<path d="M281.446 99.1025L264.586 151.605H271.384L276.189 136.449H294.445L299.322 151.605H306.12L289.26 99.1025H281.428H281.446ZM278.038 130.539C281.374 120.114 283.876 111.394 285.29 105.176H285.435C286.849 111.394 289.278 120.114 292.614 130.539H278.038Z" fill="#E5E5E5"/>
<path d="M335.143 122.707L328.417 120.93C323.975 119.679 320.349 116.706 320.349 112.047C320.349 108.131 322.561 103.617 330.266 103.617C335.886 103.617 341.216 106.209 341.869 114.494L348.45 112.573C347.417 101.84 339.657 97.8516 330.03 97.8516C319.824 97.8516 313.315 104.886 313.315 112.645C313.315 120.404 318.863 125.209 326.26 127.221L333.276 129.07C337.409 130.176 341.778 131.808 341.778 138.751C341.778 145.695 336.013 147.109 331.064 147.109C323.069 147.109 319.534 141.489 318.337 135.198L311.684 136.521C312.935 145.169 318.482 152.856 331.136 152.856C343.791 152.856 348.812 145.169 348.812 137.772C348.812 127.638 342.159 124.538 335.125 122.689L335.143 122.707Z" fill="#E5E5E5"/>
<path d="M366.909 127.584H389.462V121.819H366.909V105.031H390.712V99.1025H360.02V151.605H391.238V145.695H366.909V127.584Z" fill="#E5E5E5"/>
<path d="M410.199 99.1025H403.328V151.605H432.444V145.695H410.199V99.1025Z" fill="#E5E5E5"/>
<path d="M456.993 99.1025H450.103H442.852V105.031H450.103V145.695H442.852V151.605H464.262V145.695H456.993V105.031H464.262V99.1025H456.993Z" fill="#E5E5E5"/>
<path d="M503.838 136.086C503.838 138.008 503.838 139.93 503.983 141.707H503.838C503.548 140.601 502.732 138.153 501.318 134.835L485.872 99.1207H476.844V151.623H483.715V112.119C483.715 110.56 483.715 109.019 483.57 107.605H483.787C483.787 107.605 484.893 110.941 486.144 113.824L502.642 151.605H510.709V99.1025H503.838V136.068V136.086Z" fill="#E5E5E5"/>
<path d="M530.16 145.695V127.584H552.713V121.819H530.16V105.031H553.964V99.1025H523.289V151.605H554.49V145.695H530.16Z" fill="#E5E5E5"/>
</svg>
