<svg width="673" height="256" viewBox="0 0 673 256" fill="none" xmlns="http://www.w3.org/2000/svg">
<path d="M143.994 84.9795V140.437L142.907 141.543V167.105L139.589 170.441L136.253 167.105V141.525L135.184 140.437V84.9795H143.994Z" fill="white"/>
<path d="M99.9338 84.9795V128.381L95.1114 123.577V101.586L93.1172 99.5918V84.9795H99.9338Z" fill="white"/>
<path d="M121.348 84.9795V152.203L116.525 147.381V121.8L114.531 119.806V84.9795H121.348Z" fill="white"/>
<path d="M164.641 84.9795V119.806L162.647 121.8V147.381L157.824 152.203V84.9795H164.641Z" fill="white"/>
<path d="M186.047 84.9795V99.6099L184.035 101.604V123.559L179.23 128.381V84.9795H186.047Z" fill="white"/>
<path d="M565.667 100.135H563.129V99.1201H569.311V100.135H566.773V107.75H565.667V100.135Z" fill="white"/>
<path d="M571.58 99.4107V107.732H570.492V99.1025H572.559L574.807 107.424L577.055 99.1025H579.122V107.732H578.034V99.4107L575.858 107.732H573.756L571.58 99.4107Z" fill="white"/>
<path d="M248.854 124.32C254.837 122.616 257.647 118.03 257.647 113.08C257.647 106.862 254.094 99.1025 240.569 99.1025H223.781V151.605H242.128C255.145 151.605 259.133 143.918 259.133 137.192C259.133 130.013 255.145 125.426 248.854 124.32ZM230.67 104.795H240.515C248.727 104.795 250.649 109.237 250.649 113.588C250.649 117.359 249.253 122.018 240.515 122.018H230.67V104.795ZM241.693 145.913H230.67V127.656H242.436C249.307 127.656 252.117 131.5 252.117 136.522C252.117 141.543 249.597 145.913 241.693 145.913Z" fill="white"/>
<path d="M281.45 99.1025L264.59 151.605H271.388L276.193 136.449H294.449L299.326 151.605H306.124L289.264 99.1025H281.432H281.45ZM278.042 130.539C281.378 120.114 283.879 111.394 285.294 105.176H285.439C286.853 111.394 289.282 120.114 292.618 130.539H278.042Z" fill="white"/>
<path d="M335.147 122.707L328.421 120.93C323.979 119.679 320.353 116.706 320.353 112.047C320.353 108.131 322.565 103.617 330.27 103.617C335.89 103.617 341.22 106.209 341.873 114.494L348.454 112.573C347.421 101.84 339.661 97.8516 330.034 97.8516C319.828 97.8516 313.319 104.886 313.319 112.645C313.319 120.404 318.867 125.209 326.264 127.221L333.28 129.07C337.413 130.176 341.782 131.808 341.782 138.751C341.782 145.695 336.017 147.109 331.068 147.109C323.073 147.109 319.537 141.489 318.341 135.198L311.688 136.521C312.938 145.169 318.486 152.856 331.14 152.856C343.795 152.856 348.816 145.169 348.816 137.772C348.816 127.638 342.163 124.538 335.129 122.689L335.147 122.707Z" fill="white"/>
<path d="M366.912 127.584H389.465V121.819H366.912V105.031H390.716V99.1025H360.023V151.605H391.242V145.695H366.912V127.584Z" fill="white"/>
<path d="M410.203 99.1025H403.332V151.605H432.448V145.695H410.203V99.1025Z" fill="white"/>
<path d="M456.996 99.1025H450.107H442.855V105.031H450.107V145.695H442.855V151.605H464.266V145.695H456.996V105.031H464.266V99.1025H456.996Z" fill="white"/>
<path d="M503.842 136.086C503.842 138.008 503.842 139.93 503.987 141.707H503.842C503.552 140.601 502.736 138.153 501.322 134.835L485.876 99.1207H476.848V151.623H483.719V112.119C483.719 110.56 483.719 109.019 483.574 107.605H483.791C483.791 107.605 484.897 110.941 486.148 113.824L502.646 151.605H510.713V99.1025H503.842V136.068V136.086Z" fill="white"/>
<path d="M530.164 145.695V127.584H552.717V121.819H530.164V105.031H553.968V99.1025H523.293V151.605H554.494V145.695H530.164Z" fill="white"/>
</svg>
